<?xml version="1.0" standalone="no"?>
<!DOCTYPE svg PUBLIC "-//W3C//DTD SVG 20010904//EN"
 "http://www.w3.org/TR/2001/REC-SVG-20010904/DTD/svg10.dtd">
<svg version="1.0" xmlns="http://www.w3.org/2000/svg"
 width="48.000000pt" height="48.000000pt" viewBox="0 0 48.000000 48.000000"
 preserveAspectRatio="xMidYMid meet">

<g transform="translate(0.000000,48.000000) scale(0.100000,-0.100000)"
fill="#000000" stroke="none">
<path d="M153 465 c-41 -17 -55 -45 -55 -107 1 -34 9 -62 26 -92 13 -23 21
-47 18 -53 -4 -7 -32 -25 -62 -40 -62 -33 -91 -72 -74 -100 19 -31 64 -46 157
-51 l89 -5 -12 23 c-26 48 -29 80 -14 133 9 29 21 61 27 72 6 11 16 31 24 45
17 33 17 104 -2 139 -8 16 -28 34 -46 40 -39 13 -37 13 -76 -4z"/>
<path d="M321 227 c-69 -24 -98 -116 -54 -175 39 -53 134 -60 177 -13 80 89
-10 227 -123 188z m57 -65 c2 -12 12 -22 25 -24 29 -4 29 -32 0 -36 -14 -2
-23 -11 -25 -25 -4 -29 -32 -29 -36 0 -2 14 -11 23 -25 25 -29 4 -28 32 1 36
13 2 22 10 22 21 0 37 33 40 38 3z"/>
</g>
</svg>
