<?xml version="1.0" standalone="no"?>
<!DOCTYPE svg PUBLIC "-//W3C//DTD SVG 20010904//EN"
 "http://www.w3.org/TR/2001/REC-SVG-20010904/DTD/svg10.dtd">
<svg version="1.0" xmlns="http://www.w3.org/2000/svg"
 width="32.000000pt" height="32.000000pt" viewBox="0 0 32.000000 32.000000"
 preserveAspectRatio="xMidYMid meet">

<g transform="translate(0.000000,32.000000) scale(0.100000,-0.100000)"
fill="#000000" stroke="none">
<path d="M116 299 c-33 -26 -35 -79 -5 -128 11 -18 18 -35 16 -37 -2 -2 -23
-14 -48 -27 -53 -28 -65 -67 -27 -89 31 -17 185 -17 216 0 38 22 26 61 -27 89
-25 13 -46 25 -48 27 -2 2 5 19 16 37 30 49 28 102 -5 128 -15 12 -34 21 -44
21 -10 0 -29 -9 -44 -21z"/>
</g>
</svg>
